<svg xmlns="http://www.w3.org/2000/svg" viewBox="0 0 668 368">
      <defs>
         <linearGradient id="gradient" gradientTransform="rotate(120)">
            <stop offset="0" stop-color="#D7B56D">
               <animate attributeName="offset" values="0;0.8" dur="2s" repeatCount="indefinite"  /> 
            </stop>
            <stop offset="0" stop-color="rgba(255, 255, 255, 0.3)">
               <animate attributeName="offset" values="0;0.8" dur="2s" repeatCount="indefinite"  /> 
            </stop>
            <stop offset="0.1" stop-color="rgba(255, 255, 255, 0.3)">
                <animate attributeName="offset" values="0.1;1" dur="2s" repeatCount="indefinite"  /> 
            </stop>
            <stop offset="0.1" stop-color="#D7B56D">
                <animate attributeName="offset" values="0.1;1" dur="2s" repeatCount="indefinite"  /> 
            </stop>
         </linearGradient>
      </defs>
  <path fill="url(#gradientCrown)" d="M153.218 358.994c-5.252-2.287-9.649-7.873-10.421-13.24-.333-2.31-1.542-11.461-2.689-20.338-2.519-19.502-8.05-41.905-14.751-59.741-3.725-9.913-84.973-182.338-92.977-197.313-.742-1.39 3.767 1.782 10.021 7.049l11.371 9.576 4.446-2.711c6.887-4.198 12.519-3.581 18.082 1.982 4.302 4.302 4.646 5.212 4.03 10.666-.786 6.981-2.723 9.705-8.666 12.19-2.383.996-4.333 2.508-4.333 3.36 0 2.66 9.176 20.107 14.124 26.854 5.418 7.388 11.027 10.23 20.166 10.22 10.068-.012 16.503-2.434 22.532-8.48 6.284-6.302 8.787-14.632 7.565-25.18-.668-5.76-.483-6.332 2.038-6.332 1.578 0 4.16 1.866 5.994 4.333 3.135 4.217 7.58 15.57 7.58 19.356 0 1.035 2.735 4.54 6.077 7.787 6.77 6.58 11.184 15.01 11.228 21.445.04 5.694-1.592 6.367-5.444 2.244-5.203-5.57-14.21-10.196-19.853-10.196-6.63 0-13.03 3.811-16.289 9.697-6.2 11.202.188 36.918 17.886 72 13.038 25.843 23.768 41.157 30.672 43.777 9.696 3.678 21.015-1.835 23.697-11.542.745-2.696 4.049-41.801 7.343-86.901 3.294-45.1 6.314-84.835 6.71-88.299.706-6.151.618-6.342-3.81-8.192-13.84-5.783-10.934-25.082 4.08-27.096 5.126-.687 6.05-.334 10.333 3.95 8.08 8.08 5.94 18.1-5.204 24.358-2.846 1.598-2.674 3.696 7.364 89.945 10.972 94.275 12.937 102.836 24.48 106.646 9.86 3.254 23.668-4.948 28.169-16.734 6.757-17.694-6.607-51.547-36.678-92.912l-5.574-7.666h5.829c23.025 0 44.303 11.446 57.007 30.666 4.684 7.085 4.787 6.877 1.387-2.796-7.287-20.733-10.942-54.76-8.236-76.667 3.438-27.832 11.129-48.55 26.55-71.53 5.502-8.197 5.857-9.2 4.011-11.333-5.119-5.917-3.419-16.279 3.348-20.405 6.621-4.037 12.377-3.41 17.718 1.931 5.336 5.336 5.969 11.096 1.944 17.698l-2.58 4.23 5.078 7.103c6.357 8.892 14.804 25.562 19.139 37.77 6.38 17.966 8.224 30.22 8.127 54-.095 23.124-2.504 39.213-8.466 56.543-3.46 10.058-3.366 10.663.646 4.123 11.533-18.802 34.582-31.333 57.63-31.333h5.829l-5.574 7.666c-24.299 33.424-38.624 64.015-38.544 82.307.056 12.667 8.609 24.3 20.153 27.409 14.061 3.786 20.723-5.25 25.1-34.05 3.962-26.075 18.718-151.83 18.718-159.527 0-1.443-1.363-3.056-3.158-3.739-5.07-1.927-8.842-7.778-8.842-13.713 0-4.272.903-6.19 4.704-9.99 4.283-4.284 5.207-4.637 10.333-3.95 14.992 2.01 17.923 21.312 4.113 27.082-4.459 1.863-4.495 1.948-3.781 8.86.396 3.838 3.393 43.578 6.659 88.311 3.266 44.734 6.557 83.54 7.312 86.235 2.725 9.718 14.027 15.218 23.717 11.542 6.904-2.62 17.634-17.934 30.672-43.777 24.63-48.822 26.541-75.328 5.858-81.26-6.247-1.792-13.785.81-21.237 7.33-3.668 3.208-7.048 5.455-7.51 4.993-1.648-1.649-.74-9.154 1.78-14.705 1.409-3.104 5.295-8.3 8.637-11.548 3.342-3.248 6.076-6.752 6.076-7.787 0-3.787 4.446-15.14 7.581-19.356 1.834-2.467 4.416-4.333 5.994-4.333 2.521 0 2.706.573 2.038 6.333-2.334 20.143 9.767 33.636 30.186 33.66 3.556.003 8.53-.973 11.053-2.17 5.075-2.409 13.43-13.22 18.34-23.731 5.524-11.827 5.54-12.418.39-14.57-5.964-2.491-8.915-6.89-8.915-13.286 0-4.102.936-6.106 4.533-9.703 5.395-5.395 11.103-5.964 17.949-1.791l4.482 2.732 8.184-6.973c4.502-3.836 9.612-8.218 11.355-9.738l3.17-2.763-2.018 4c-1.11 2.2-20.912 43.6-44.006 92-49.973 104.735-51.03 107.607-60.868 165.553-3.88 22.853-5.503 26.893-12.52 31.172-4.167 2.54-8.097 2.597-178.261 2.55-142.625-.038-174.742-.37-178.113-1.837z"/>
</svg>
